<?xml version="1.0" encoding="utf-8"?>
<!-- Generator: Adobe Illustrator 27.5.0, SVG Export Plug-In . SVG Version: 6.00 Build 0)  -->
<svg version="1.1" xmlns="http://www.w3.org/2000/svg" xmlns:xlink="http://www.w3.org/1999/xlink" x="0px" y="0px"
	 viewBox="0 0 500 500" style="enable-background:new 0 0 500 500;" xml:space="preserve">
<g id="BACKGROUND">
	<rect style="fill: rgba(0,0,0,0)" width="500" height="500"/>
</g>
<g id="OBJECTS">
	<g>
		<g>
			<path style="opacity:0.5;fill:#BEBEBE;" d="M181.648,457.344c0,3.522-17.133,6.378-38.268,6.378s-38.268-2.855-38.268-6.378
				c0-3.523,17.133-6.378,38.268-6.378S181.648,453.822,181.648,457.344z"/>
			<path style="fill:#FAD2B4;" d="M205.691,273.555c0,0-4.429,5.139,1.254,17.645l23.221-10.553c0,0-3.488-8.337-9.998-13.671
				c0,0-5.258-7.839-8.169-11.814l-11.758,11.814L205.691,273.555z"/>
			<path style="opacity:0.5;fill:#FAD2B4;" d="M230.165,280.647L206.945,291.2c-0.357-0.786-0.674-1.542-0.955-2.27
				c0.507-1.205,1.678-2.643,4.407-2.651c0,0,2.305-3.859,6.627-2.265c0,0,0.924-2.404,2.714-4.658
				c-1.854-0.977-4.626-2.754-5.731-5.113l6.159-7.266C226.677,272.31,230.165,280.647,230.165,280.647z"/>
			<path style="opacity:0.5;fill:#FAD2B4;" d="M220.157,281.974c0,0,0.895-1.594,1.598-2.303c0,0-1.315-0.537-2.324-1.161
				l5.176-2.352l1.932,4.251l-5.879,2.672L220.157,281.974z"/>
			<g>
				<path style="fill:#E63C8C;" d="M211.913,406.221c-15.542-42.702-22.095-88.677-22.095-88.677l71.92-26.177
					c0,0,24.532,39.43,40.075,82.133L211.913,406.221z"/>
				<path style="fill:#AA1464;" d="M214.543,315.544c0.339,0.931-0.141,1.96-1.072,2.299c-0.931,0.339-1.96-0.141-2.299-1.072
					c-0.339-0.931,0.141-1.96,1.072-2.299C213.175,314.134,214.204,314.613,214.543,315.544z"/>
				<path style="fill:#AA1464;" d="M244.884,304.501c0.339,0.931-0.141,1.96-1.072,2.299c-0.931,0.339-1.96-0.141-2.299-1.072
					c-0.339-0.931,0.141-1.96,1.072-2.299C243.516,303.09,244.545,303.57,244.884,304.501z"/>
				
					<path style="fill:none;stroke:#E6E6E6;stroke-width:1.0125;stroke-linecap:round;stroke-linejoin:round;stroke-miterlimit:10;" d="
					M243.198,305.115c-1.731-14.921-3.552-26.868-24.285-19.321c-20.733,7.546-12.01,22.367-6.056,30.365"/>
			</g>
			<g>
				<path style="fill:#5AD2D7;" d="M196.738,378.986c-6.313-35.802-5.089-72.933-5.089-72.933l60.298-10.632
					c0,0,13.85,34.473,20.163,70.275L196.738,378.986z"/>
				<path style="fill:#0A969B;" d="M211.406,307.912c0.138,0.78-0.383,1.525-1.164,1.662c-0.78,0.138-1.525-0.383-1.662-1.164
					c-0.138-0.78,0.384-1.525,1.164-1.662C210.525,306.61,211.269,307.131,211.406,307.912z"/>
				<path style="fill:#0A969B;" d="M236.845,303.426c0.138,0.78-0.384,1.525-1.164,1.662c-0.78,0.138-1.525-0.383-1.662-1.164
					c-0.138-0.781,0.383-1.525,1.164-1.662C235.963,302.125,236.707,302.646,236.845,303.426z"/>
				
					<path style="fill:none;stroke:#FAFAFA;stroke-width:1.0125;stroke-linecap:round;stroke-linejoin:round;stroke-miterlimit:10;" d="
					M235.432,303.676c3.796-11.989,1.413-26.321-15.291-18.473c-18.65,8.762-13.854,15.741-10.148,22.959"/>
			</g>
			<path style="fill:#0A969B;" d="M148.956,70.702c0,0,5.091-6.524,4.083-16.154c-1.008-9.63-12.496-8.175-13.807-2.016
				c0,0-6.318-8.399-15.911-2.309c-10.069,6.392-7.46,18.882-5.556,22.129c0,0-6.885,0.813-2.911,7.951
				c3.303,5.935,16.741,4.459,23.068-0.448L148.956,70.702z"/>
			<path style="opacity:0.5;fill:#0A969B;" d="M125.38,79.631c-4.138,1.808-10.526,0.672-10.526,0.672
				c3.303,5.935,16.741,4.459,23.068-0.448l11.034-9.153c0,0,1.749-2.259,2.994-6.061C130.899,65.858,125.38,79.631,125.38,79.631z"
				/>
			<g style="opacity:0.5;">
				
					<path style="fill:none;stroke:#0A969B;stroke-width:0.5063;stroke-linecap:round;stroke-linejoin:round;stroke-miterlimit:10;" d="
					M147.104,55.443c-0.858,2.24-6.532,2.016-5.748-2.016c0.784-4.031,6.532-4.442,8.324-0.709
					c2.13,4.437,0.448,11.922-2.688,15.453"/>
				
					<path style="fill:none;stroke:#0A969B;stroke-width:0.5063;stroke-linecap:round;stroke-linejoin:round;stroke-miterlimit:10;" d="
					M148.598,57.683c0,0-0.224,7.391-5.599,12.654"/>
				
					<path style="fill:none;stroke:#0A969B;stroke-width:0.5063;stroke-linecap:round;stroke-linejoin:round;stroke-miterlimit:10;" d="
					M116.459,78.399c-0.448-1.194-0.53-4.554,3.766-4.853c0,0-4.363-10.041-0.668-16.275"/>
				
					<path style="fill:none;stroke:#0A969B;stroke-width:0.5063;stroke-linecap:round;stroke-linejoin:round;stroke-miterlimit:10;" d="
					M119.744,64.01c0,0-0.747-6.961,4.666-11.291"/>
			</g>
			<g>
				<path style="fill:#FAD2B4;" d="M122.981,124.361c0,0-2.642-7.373-9.745-5.525c-4.682,1.218-5.658,7.357-3.833,11.239
					c3.366,7.157,11.015,7.991,13.578,4.569V124.361z"/>
				<g>
					<path style="fill:#DCAF8C;" d="M111.781,123.029c0.634-0.958,1.762-1.593,2.944-1.681c1.187-0.106,2.365,0.311,3.309,0.966
						c0.931,0.685,1.685,1.571,2.212,2.556c0.543,0.978,0.896,2.035,1.111,3.105c0.026,0.127-0.057,0.251-0.184,0.277
						c-0.061,0.012-0.121,0-0.17-0.031l-0.009-0.006c-0.854-0.532-1.783-0.998-2.716-1.24c-0.935-0.228-1.882-0.186-2.474,0.437
						c-0.606,0.628-0.927,1.505-0.632,2.349c0.252,0.849,0.946,1.597,1.806,2.064l0.006,0.003c0.112,0.061,0.153,0.2,0.092,0.312
						c-0.051,0.094-0.159,0.138-0.258,0.113c-1.08-0.274-2.056-1.065-2.521-2.185c-0.454-1.143-0.086-2.574,0.827-3.373
						c0.451-0.428,1.067-0.701,1.673-0.76c0.609-0.07,1.192,0.047,1.72,0.228c1.064,0.367,1.968,0.965,2.765,1.698l-0.364,0.24
						c-0.395-0.983-0.819-1.946-1.383-2.808c-0.554-0.863-1.222-1.65-2.043-2.206c-0.799-0.578-1.755-0.924-2.722-0.9
						c-0.966,0.003-1.919,0.413-2.634,1.13c-0.089,0.091-0.234,0.092-0.325,0.004C111.732,123.242,111.723,123.118,111.781,123.029z
						"/>
				</g>
				<path style="opacity:0.5;fill:#FAD2B4;" d="M113.236,118.836c-1.953,0.508-3.253,1.878-3.982,3.577
					c3.309-0.822,8.569,0.348,11.543,13.783c0.889-0.325,1.65-0.84,2.183-1.552v-10.282
					C122.981,124.361,120.34,116.988,113.236,118.836z"/>
			</g>
			<g>
				<path style="fill:#FAD2B4;" d="M198.795,124.361c0,0,2.641-7.373,9.745-5.525c4.682,1.218,5.659,7.357,3.833,11.239
					c-3.365,7.157-11.015,7.991-13.578,4.569V124.361z"/>
				<g>
					<path style="fill:#DCAF8C;" d="M209.639,123.316c-0.715-0.717-1.668-1.126-2.634-1.13c-0.967-0.024-1.923,0.322-2.722,0.9
						c-0.821,0.556-1.488,1.343-2.043,2.206c-0.564,0.862-0.988,1.825-1.383,2.808l-0.364-0.24c0.797-0.733,1.701-1.331,2.765-1.698
						c0.529-0.181,1.111-0.298,1.72-0.228c0.607,0.059,1.222,0.332,1.673,0.76c0.913,0.799,1.282,2.23,0.827,3.373
						c-0.465,1.12-1.441,1.911-2.521,2.185c-0.123,0.031-0.248-0.043-0.279-0.166c-0.026-0.104,0.023-0.209,0.113-0.258l0.006-0.003
						c0.86-0.467,1.554-1.215,1.806-2.064c0.295-0.843-0.026-1.721-0.632-2.349c-0.591-0.623-1.539-0.665-2.474-0.437
						c-0.933,0.242-1.862,0.709-2.716,1.24l-0.009,0.005c-0.11,0.069-0.255,0.035-0.324-0.075c-0.033-0.053-0.042-0.114-0.031-0.171
						c0.215-1.07,0.568-2.126,1.111-3.105c0.527-0.985,1.28-1.871,2.212-2.556c0.944-0.655,2.122-1.072,3.309-0.966
						c1.182,0.088,2.31,0.723,2.944,1.681c0.07,0.106,0.041,0.248-0.065,0.318C209.837,123.408,209.715,123.391,209.639,123.316z"/>
				</g>
				<path style="opacity:0.5;fill:#FAD2B4;" d="M208.539,118.836c1.953,0.508,3.253,1.878,3.982,3.577
					c-3.309-0.822-8.569,0.348-11.543,13.783c-0.889-0.325-1.65-0.84-2.183-1.552v-10.282
					C198.795,124.361,201.436,116.988,208.539,118.836z"/>
			</g>
			<polygon style="fill:#FAD2B4;" points="168.541,160.631 153.234,160.631 152.277,175.938 169.498,175.938 			"/>
			<polygon style="opacity:0.5;fill:#FAD2B4;" points="168.541,160.631 153.234,160.631 152.277,175.938 169.498,175.938 			"/>
			<path style="fill:#FAD2B4;" d="M132.097,199.026c-5.089-6.824-10.363-13.569-10.363-13.569s-0.798-6.203-7.965-8.368
				c-5.9-1.782-13.233,2.837-13.233,2.837s0.225-3.434-3.392-4.766c-3.395-1.251-6.574,1.668-9.037,5.363
				c-2.572,3.858,0.927,10.289,3.527,11.758c3.863,2.184,13.183,0.476,17.693,1.008c2.036,7.119,4.079,13.188,6.1,18.338
				C125.321,207.583,130.072,202.113,132.097,199.026z"/>
			<g>
				<path style="fill:#DCAF8C;" d="M100.536,179.926c-1.04,0.872-1.971,1.82-3.049,2.664c-1.063,0.824-2.354,1.559-3.741,1.575
					c0.647-0.213,1.249-0.489,1.812-0.832c0.56-0.347,1.096-0.732,1.62-1.144C98.233,181.389,99.274,180.471,100.536,179.926z"/>
			</g>
			<path style="fill:#FAD2B4;" d="M160.888,70.702c-25.864,0-39.465,16.641-40.501,40.782c-1.43,33.31,6.211,54.888,40.501,54.888
				c34.291,0,41.931-21.578,40.501-54.888C200.354,87.343,186.752,70.702,160.888,70.702z"/>
			<g>
				<g>
					<path style="fill:#DCAF8C;" d="M161.17,122.712c0.076,1.64,0.3,3.288,0.577,4.903c0.299,1.613,0.714,3.204,1.337,4.682
						c0.179,0.355,0.331,0.729,0.544,1.059l0.307,0.503c0.128,0.193,0.248,0.398,0.351,0.61c0.41,0.852,0.492,1.844,0.281,2.755
						c-0.186,0.928-0.795,1.732-1.4,2.313c-0.611,0.621-1.342,1.144-2.153,1.478c-0.145,0.06-0.31-0.009-0.37-0.154
						c-0.054-0.131,0-0.281,0.118-0.352c0.682-0.41,1.268-0.949,1.79-1.545c0.539-0.616,0.923-1.227,1.071-1.95
						c0.154-0.713,0.047-1.464-0.248-2.122c-0.078-0.164-0.166-0.319-0.266-0.475l-0.338-0.566
						c-0.232-0.375-0.392-0.778-0.581-1.168c-0.663-1.596-1.051-3.261-1.282-4.933c-0.244-1.673-0.33-3.35-0.302-5.039
						c0.003-0.156,0.131-0.28,0.287-0.278c0.15,0.003,0.27,0.121,0.277,0.268L161.17,122.712z"/>
				</g>
				<g>
					<path style="fill:#784B41;" d="M147.109,129.142c-0.881-1.037-1.868-1.875-2.965-2.451c-1.097-0.565-2.285-0.881-3.485-0.868
						c-1.2-0.015-2.388,0.294-3.488,0.856c-1.099,0.571-2.089,1.406-2.974,2.439l-0.003,0.004c-0.121,0.141-0.333,0.158-0.475,0.037
						c-0.105-0.09-0.141-0.231-0.103-0.356c0.437-1.405,1.382-2.685,2.639-3.586c1.25-0.917,2.83-1.414,4.407-1.419
						c1.578,0.01,3.155,0.515,4.401,1.436c1.253,0.906,2.194,2.188,2.627,3.594c0.055,0.178-0.045,0.366-0.223,0.421
						c-0.133,0.041-0.271-0.004-0.356-0.104L147.109,129.142z"/>
				</g>
				<g>
					<path style="fill:#784B41;" d="M134.546,128.228c-0.372-0.072-0.67-0.167-0.99-0.283c-0.313-0.116-0.617-0.255-0.91-0.414
						c-0.587-0.315-1.126-0.733-1.566-1.24c-0.128-0.148-0.112-0.372,0.036-0.5c0.136-0.118,0.337-0.114,0.468,0.003l0.009,0.008
						c0.425,0.378,0.92,0.671,1.455,0.875c0.266,0.103,0.54,0.188,0.819,0.252c0.271,0.063,0.576,0.113,0.816,0.127l0.012,0.001
						c0.327,0.019,0.576,0.299,0.557,0.626c-0.019,0.326-0.299,0.576-0.626,0.557C134.599,128.236,134.57,128.232,134.546,128.228z"
						/>
				</g>
				<circle style="opacity:0.3;fill:#FF50A0;" cx="132.915" cy="135.233" r="6.318"/>
				<g>
					<path style="fill:#784B41;" d="M174.086,128.829c0.433-1.406,1.374-2.688,2.627-3.594c1.246-0.922,2.824-1.426,4.401-1.436
						c1.577,0.004,3.157,0.501,4.407,1.419c1.257,0.9,2.202,2.181,2.639,3.585c0.055,0.178-0.044,0.366-0.221,0.422
						c-0.132,0.041-0.271-0.003-0.356-0.102l-0.003-0.004c-0.885-1.033-1.875-1.868-2.974-2.439
						c-1.099-0.561-2.288-0.87-3.488-0.856c-1.2-0.013-2.388,0.303-3.486,0.868c-1.097,0.576-2.084,1.414-2.965,2.451l-0.003,0.004
						c-0.12,0.142-0.333,0.159-0.475,0.039C174.084,129.095,174.047,128.954,174.086,128.829z"/>
				</g>
				<g>
					<path style="fill:#00787D;" d="M172.616,113.166c0.843-1.394,2.259-2.386,3.749-3.011c1.503-0.64,3.134-0.913,4.752-0.934
						c1.618,0.018,3.25,0.288,4.754,0.924c1.492,0.621,2.909,1.61,3.757,3.001c0.079,0.13,0.038,0.3-0.092,0.38
						c-0.097,0.059-0.217,0.051-0.304-0.011l-0.009-0.007c-1.208-0.861-2.531-1.397-3.901-1.757
						c-1.373-0.343-2.786-0.516-4.203-0.507c-1.417-0.008-2.83,0.169-4.202,0.514c-1.369,0.363-2.69,0.901-3.895,1.768l-0.009,0.006
						c-0.124,0.089-0.297,0.061-0.386-0.063C172.562,113.378,172.561,113.258,172.616,113.166z"/>
				</g>
				<g>
					<path style="fill:#784B41;" d="M187.094,127.054c0.24-0.014,0.545-0.064,0.816-0.127c0.278-0.064,0.552-0.149,0.819-0.252
						c0.535-0.203,1.03-0.497,1.455-0.875l0.009-0.008c0.146-0.13,0.371-0.117,0.501,0.03c0.12,0.135,0.118,0.335,0.003,0.468
						c-0.439,0.507-0.979,0.926-1.566,1.24c-0.293,0.159-0.597,0.297-0.91,0.414c-0.32,0.116-0.618,0.211-0.99,0.283
						c-0.321,0.062-0.632-0.147-0.694-0.468c-0.062-0.321,0.147-0.632,0.468-0.694c0.025-0.005,0.05-0.008,0.075-0.01
						L187.094,127.054z"/>
				</g>
				<circle style="opacity:0.3;fill:#FF50A0;" cx="188.861" cy="135.233" r="6.318"/>
				<g>
					<path style="fill:#00787D;" d="M132.146,113.166c0.843-1.394,2.259-2.386,3.749-3.011c1.503-0.64,3.134-0.913,4.752-0.934
						c1.618,0.018,3.25,0.288,4.754,0.924c1.492,0.621,2.909,1.61,3.757,3.001c0.079,0.13,0.038,0.3-0.092,0.38
						c-0.097,0.059-0.217,0.051-0.304-0.011l-0.009-0.007c-1.208-0.861-2.531-1.397-3.901-1.757
						c-1.373-0.343-2.786-0.516-4.203-0.507c-1.417-0.008-2.83,0.169-4.202,0.514c-1.369,0.363-2.69,0.902-3.895,1.768l-0.009,0.006
						c-0.124,0.089-0.297,0.061-0.386-0.063C132.092,113.378,132.091,113.258,132.146,113.166z"/>
				</g>
				<ellipse style="fill:#961432;" cx="160.888" cy="148.668" rx="1.913" ry="2.87"/>
			</g>
			<path style="fill:#F0BE14;" d="M193.689,224.572c-12.154-26.016-14.747-44.841-26.801-43.306
				c-10.601,1.35-11.497,12.474-7.391,24.791c3.472,10.417,9.23,24.142,12.915,30.459c3.774,5.558,18.934,23.952,32.366,37.38
				c6.022-5.293,9.015-9.777,11.422-14.928C210.869,250.594,197.579,230.804,193.689,224.572z"/>
			<path style="opacity:0.5;fill:#F0BE14;" d="M187.754,220.168c0.606-3.034,0.592-5.999,0.256-8.71
				c-7.692-18.946-11.211-31.454-21.122-30.191c-10.601,1.35-11.497,12.474-7.391,24.791c3.472,10.417,9.23,24.142,12.915,30.459
				c2.451,3.61,9.706,12.634,18.17,22.195C189.79,242.758,187.754,220.168,187.754,220.168z"/>
			<path style="fill:#0A969B;" d="M160.888,64.513c32.913,0,34.29,21.389,34.29,21.389c20.843,16.125,6.227,38.908,6.227,38.908
				c-10.967-5.264-10.273-16.512-10.273-16.512c-5.599-4.143-7.503-14.446-7.503-14.446s-7.054,5.599-22.741,5.599
				s-22.742-5.599-22.742-5.599s-1.904,10.302-7.503,14.446c0,0,0.694,11.248-10.273,16.512c0,0-14.617-22.783,6.227-38.908
				C126.597,85.902,127.975,64.513,160.888,64.513z"/>
			<path style="opacity:0.5;fill:#0A969B;" d="M199.717,107.514c-5.001,0.224-16.088-13.662-16.088-13.662
				s1.904,10.302,7.503,14.446c0,0-0.694,11.248,10.273,16.512c0,0,9.584-14.942,2.159-29.19
				C203.64,96.465,204.523,107.299,199.717,107.514z"/>
			<path style="opacity:0.5;fill:#0A969B;" d="M120.37,124.811c10.967-5.264,10.273-16.512,10.273-16.512
				c5.599-4.143,7.503-14.446,7.503-14.446s-11.086,13.886-16.087,13.662c-4.989-0.223-3.825-11.894-3.82-11.949
				C110.761,109.829,120.37,124.811,120.37,124.811z"/>
			<g style="opacity:0.5;">
				
					<path style="fill:none;stroke:#0A969B;stroke-width:0.5063;stroke-linecap:round;stroke-linejoin:round;stroke-miterlimit:10;" d="
					M142.998,79.519c-3.285,0-8.511,11.164,5.002,15.143c16.005,4.713,31.318-1.332,35.629-8.648"/>
				
					<path style="fill:none;stroke:#0A969B;stroke-width:0.5063;stroke-linecap:round;stroke-linejoin:round;stroke-miterlimit:10;" d="
					M147.399,86.462c3.886,3.807,20.608,7.615,34.419-0.97"/>
				
					<path style="fill:none;stroke:#0A969B;stroke-width:0.5063;stroke-linecap:round;stroke-linejoin:round;stroke-miterlimit:10;" d="
					M186.995,75.432c0,0-9.189-8.231-26.108-8.231"/>
			</g>
			<path style="fill:#005A5F;" d="M181.503,282.578h-29.225c0,0-15.143,76.036-22.659,130.869h18.57
				C159.274,375.875,177.861,325.255,181.503,282.578z"/>
			<path style="opacity:0.5;fill:#005A5F;" d="M181.503,282.578h-29.225c0,0-7.214,36.224-14.155,76.697
				C176.263,337.935,181.503,282.578,181.503,282.578z"/>
			<path style="fill:#FAD2B4;" d="M130.643,450.289c1.008,1.232,6.271,1.568,6.271,0c0-1.568,3.284-2.512,3.284-2.512
				c1.021-9.137,4.027-20.901,7.989-34.33h-18.57c-1.795,13.093-3.155,24.978-3.77,34.33
				C130.307,447.777,129.635,449.057,130.643,450.289z"/>
			<path style="fill:#FAFAFA;" d="M136.914,450.289c0,1.568-5.263,1.232-6.271,0c-1.008-1.232-0.336-2.512-4.795-2.512
				c-0.157,2.387,0,9.567,0,9.567h35.135c0-3.322-7.345-7.079-20.785-9.567C140.198,447.777,136.914,448.721,136.914,450.289z"/>
			<path style="fill:#00787D;" d="M149.046,415.5l1.232-4.255c0,0-11.459-1.53-22.135-1.53l-0.672,6.084
				C127.47,415.799,137.362,416.322,149.046,415.5z"/>
			<path style="fill:#005A5F;" d="M141.602,262.534c1.561,12.882,6.359,15.937,10.675,20.045c0,0-9.055,22.62-18.406,39.995
				c-17.282-0.837-31.045-0.964-42.193-0.824v21.221c11.777,2.283,25.216,4.821,40.909,7.04c8.234,1.165,16.476-2.015,21.797-8.406
				c12.111-14.548,23-35.179,27.119-59.027c1.741-10.082,1.762-24.448,1.608-39.159c-22.016-0.43-35.984-4.356-35.984-4.356
				S140.463,253.136,141.602,262.534z"/>
			<path style="opacity:0.5;fill:#005A5F;" d="M147.127,239.063c0,0-6.663,14.073-5.524,23.47
				c1.561,12.882,6.359,15.937,10.675,20.045c0,0-5.592,13.969-12.525,28.384l19.297,2.598l-6.623-49.801
				c2.437,0.661,5.082,1.298,7.898,1.86c1.242-3.152,3.607-9.171,5.145-13.201c0,0,0.173,6.994-1.21,13.913
				c5.75,0.941,12.066,1.513,18.649,1.353c0.32-7.478,0.292-15.812,0.203-24.264C161.095,242.989,147.127,239.063,147.127,239.063z"
				/>
			<path style="opacity:0.5;fill:#005A5F;" d="M136.977,328.864c-1.692-4.479-3.106-6.29-3.106-6.29
				c-1.102-0.053-2.188-0.104-3.261-0.151C133.459,325.196,136.977,328.864,136.977,328.864z"/>
			<path style="fill:#F0BE14;" d="M170.455,175.938c1.087,1.018,2.096,2.083,2.914,2.991c1.251,1.389,2.287,2.952,3.084,4.642
				l3.616,7.674c0,0,2.898,4.398,5.032,10.729c1.747,5.183,1.744,10.794,0.076,16.002c-0.046,0.144-0.093,0.29-0.142,0.437
				c-0.703,5.22,1.962,20.792,1.962,46.548c-7.526,0-14.417-0.548-20.518-1.364c0.376-10.574-0.224-19.241-0.224-19.241
				c-1.559,6.302-4.387,13.502-6.379,18.208c-14.043-2.517-22.45-6.114-22.45-6.114s0.729-5.648,4.192-17.245
				c3.626-12.143,5.376-20.941,3.694-35.813c-1.427-12.62,1.576-21.3,6.01-27.453c0,0-2.005-3.138-2.005-7.058
				c0,0,3.53-2.049,11.73-0.476c6.589,1.264,10.643,0.896,10.643,0.896S171.796,173.443,170.455,175.938z"/>
			<path style="opacity:0.5;fill:#F0BE14;" d="M148.266,181.15c-2.618,5.614-4.019,12.831-2.955,22.241
				c1.682,14.873-0.068,23.67-3.694,35.813c-3.463,11.597-4.192,17.245-4.192,17.245s5.347,2.286,14.627,4.488l0,0l-3.568-24.213
				c0,0,5.822-6.29,8.742-15.064c4.236-12.728,7.749-16.087,7.749-16.087l-10.629-24.922
				C152.382,180.31,150.221,180.49,148.266,181.15z"/>
			<path style="opacity:0.5;fill:#F0BE14;" d="M151.321,175.938c-0.895,1.242-1.727,2.593-2.481,4.052
				c2.166-2.671,5.058-4.052,5.058-4.052c-2.525-1.148-4.277-4.399-4.295-4.433C150.157,174.11,151.321,175.938,151.321,175.938z"/>
			<path style="fill:#FAD2B4;" d="M57.349,322.692c0,4.459-1.28,3.787-2.512,4.795c-1.232,1.008-1.568,6.271,0,6.271
				c1.568,0,2.512,3.284,2.512,3.284c9.895,1.106,21.057,3.356,34.33,5.928v-21.221C75.751,321.948,65.169,322.692,57.349,322.692z"
				/>
			<path style="fill:#FAFAFA;" d="M47.782,357.827c3.322,0,7.078-7.345,9.567-20.785c0,0-0.944-3.284-2.512-3.284
				c-1.568,0-1.232-5.263,0-6.271c1.232-1.008,2.512-0.336,2.512-4.795c-2.392,0-9.567,0-9.567,0V357.827z"/>
			<path style="fill:#00787D;" d="M88.874,319.495c0,0,0.672,17.357,1.232,25.084l3.359,0.672c0,0,1.456-14.334,1.68-25.756H88.874z
				"/>
			<path style="fill:#F0BE14;" d="M164.69,185.519c-3.225-2.977-7.107-6.262-14.327-4.246c-8.115,2.265-10.548,14.259-18.49,27.522
				c-3.362,5.615-10.198,19.66-2.584,26.005c6.194,5.162,14.856,0.971,18.216-2.613c3.359-3.583,14.259-26.613,17.469-26.613
				L164.69,185.519z"/>
			<path style="fill:#F0BE14;" d="M140.834,211.534c-1.38-2.466-10.537-16.283-17.479-24.681c-3.471,4.591-7.895,7.447-13.998,8.678
				c10.023,36.058,21.613,43.057,27.57,41.541C150.983,233.497,144.109,217.383,140.834,211.534z"/>
			<g>
				
					<line style="fill:none;stroke:#FAFAFA;stroke-width:0.675;stroke-linecap:round;stroke-linejoin:round;stroke-miterlimit:10;" x1="125.975" y1="234.259" x2="135.064" y2="201.731"/>
				
					<line style="fill:none;stroke:#FAFAFA;stroke-width:0.675;stroke-linecap:round;stroke-linejoin:round;stroke-miterlimit:10;" x1="144.152" y1="234.259" x2="135.064" y2="201.731"/>
				<polygon style="fill:#FA8C3C;" points="153.241,308.881 135.064,306.967 116.887,308.881 125.497,232.345 144.631,232.345 				
					"/>
				<polygon style="opacity:0.5;fill:#FA8C3C;" points="153.241,308.881 135.064,306.967 135.064,232.345 144.631,232.345 				"/>
				<polygon style="opacity:0.5;fill:#FA8C3C;" points="116.887,308.881 135.064,297.401 153.241,308.881 135.064,306.967 				"/>
			</g>
			<g>
				<g>
					
						<line style="fill:none;stroke:#FAFAFA;stroke-width:0.675;stroke-linecap:round;stroke-linejoin:round;stroke-miterlimit:10;" x1="114.162" y1="196.412" x2="98.087" y2="181.628"/>
					
						<line style="fill:none;stroke:#FAFAFA;stroke-width:0.675;stroke-linecap:round;stroke-linejoin:round;stroke-miterlimit:10;" x1="97.215" y1="198.838" x2="98.087" y2="181.628"/>
					<polygon style="fill:#FF50A0;" points="132.314,259.69 116.934,260.533 102.136,264.674 96.174,197.892 115.017,194.569 					
						"/>
					<polygon style="opacity:0.5;fill:#FF50A0;" points="132.314,259.69 116.934,260.533 105.596,196.231 115.017,194.569 					"/>
					<polygon style="opacity:0.5;fill:#FF50A0;" points="132.314,259.69 115.231,250.876 102.136,264.674 116.934,260.533 					"/>
				</g>
				<g>
					
						<line style="fill:none;stroke:#FAFAFA;stroke-width:0.675;stroke-linecap:round;stroke-linejoin:round;stroke-miterlimit:10;" x1="82.012" y1="196.412" x2="98.087" y2="181.628"/>
					
						<line style="fill:none;stroke:#FAFAFA;stroke-width:0.675;stroke-linecap:round;stroke-linejoin:round;stroke-miterlimit:10;" x1="98.959" y1="198.838" x2="98.087" y2="181.628"/>
					<polygon style="fill:#282396;" points="94.039,264.674 79.241,260.533 63.861,259.69 81.158,194.569 100.001,197.892 					"/>
					<polygon style="opacity:0.5;fill:#282396;" points="94.039,264.674 79.241,260.533 90.579,196.231 100.001,197.892 					"/>
					<polygon style="opacity:0.5;fill:#282396;" points="63.861,259.69 80.944,250.876 94.039,264.674 79.241,260.533 					"/>
				</g>
			</g>
			<path style="fill:#FAD2B4;" d="M231.786,284.189c0.256,1.454-0.561,2.895-1.917,3.511l-0.001,0
				c-1.356,0.616-2.978,0.284-3.905-0.865c-0.023-0.029-0.046-0.061-0.069-0.091c0.018,0.089,0.039,0.18,0.055,0.267
				c0.275,1.564-0.603,3.113-2.061,3.776l-0.001,0c-1.458,0.663-3.203,0.306-4.2-0.93c-0.056-0.069-0.11-0.144-0.165-0.217
				c0.007,0.037,0.017,0.076,0.023,0.112c0.256,1.454-0.561,2.895-1.916,3.511l-0.001,0c-1.356,0.616-2.978,0.284-3.906-0.865
				c-0.037-0.046-0.074-0.098-0.111-0.146c0.002,0.008,0.004,0.017,0.005,0.024c0.237,1.345-0.519,2.676-1.772,3.246l-0.001,0
				c-1.253,0.57-2.753,0.263-3.611-0.8c-0.36-0.446-0.716-0.986-1.004-1.62c-0.288-0.634-0.461-1.257-0.56-1.821
				c-0.237-1.345,0.519-2.676,1.772-3.246l0,0l0.001,0c1.253-0.57,2.753-0.263,3.611,0.8c0.005,0.006,0.01,0.013,0.014,0.019
				c-0.012-0.059-0.026-0.12-0.036-0.179c-0.256-1.454,0.561-2.895,1.917-3.511l0,0l0.001,0c1.356-0.616,2.978-0.284,3.905,0.865
				c0.023,0.029,0.046,0.061,0.069,0.09c-0.018-0.089-0.039-0.179-0.055-0.266c-0.275-1.564,0.604-3.113,2.061-3.776l0,0l0.001,0
				c1.458-0.663,3.203-0.306,4.2,0.93c0.055,0.069,0.11,0.144,0.165,0.216c-0.007-0.037-0.017-0.075-0.023-0.111
				c-0.256-1.454,0.561-2.895,1.917-3.511h0l0.001,0c1.355-0.616,2.978-0.284,3.905,0.865c0.389,0.483,0.774,1.066,1.086,1.752
				C231.492,282.905,231.678,283.578,231.786,284.189z"/>
			<path style="opacity:0.5;fill:#FAD2B4;" d="M218.914,284.856c0.017-0.878,0.591-1.949,1.196-2.843
				c1.42-0.557,3.062-0.19,4.019,0.995c0.055,0.069,0.11,0.144,0.165,0.216c-0.007-0.037-0.016-0.075-0.023-0.111
				c-0.256-1.454,0.561-2.895,1.917-3.511h0l0.001,0c1.355-0.616,2.978-0.284,3.905,0.865c0.271,0.336,0.539,0.725,0.783,1.16
				c-0.051,1.156-0.843,3.157-4.983,5.118C219.544,289.753,218.877,286.737,218.914,284.856z"/>
			<path style="fill:#FAD2B4;" d="M220.167,266.976c0,0,3.778,2.121,7.795,7.784c4.355,6.139,3.089,8.601-0.322,10.479
				c-3.411,1.878-6.354,3.326-7.291,1.263c-1.204-2.649,2.729-5.363,4.583-6.697c0,0-10.106-0.223-12.648-9.246L220.167,266.976z"/>
		</g>
		<g>
			<path style="opacity:0.5;fill:#BEBEBE;" d="M431.099,457.344c0,3.522-22.844,6.378-51.024,6.378s-51.024-2.855-51.024-6.378
				c0-3.523,22.844-6.378,51.024-6.378S431.099,453.822,431.099,457.344z"/>
			<path style="fill:#5A372D;" d="M344.854,457.344h35.135c0,0,0-7.175,0-9.567c0-2.38,0.049-6.243,0.087-11.155
				c-6.126,0.971-11.793,0.792-15.793,0.399c0.533,3.889,0.991,7.493,1.356,10.756C352.199,450.266,344.854,454.022,344.854,457.344
				z"/>
			<path style="opacity:0.5;fill:#5A372D;" d="M379.989,451.007c-5.163,1.666-8.557,4.365-10.495,6.337h10.495
				C379.989,457.344,379.989,453.914,379.989,451.007z"/>
			<path style="fill:#14055A;" d="M380.894,447.062c0.15-19.464-0.688-65.869-4.598-91.621
				c14.381-36.873,25.098-72.863,25.098-72.863h-30.182c0,0-10.289,29.294-17.405,62.103c-1.495,6.894-1.7,14.01-0.619,20.981
				c4.231,27.282,8.535,63.117,11.094,81.799C368.283,447.854,374.768,448.033,380.894,447.062z"/>
			<path style="opacity:0.5;fill:#14055A;" d="M401.394,282.578h-30.182l6.155,70.101
				C391.205,316.792,401.394,282.578,401.394,282.578z"/>
			<path style="opacity:0.5;fill:#14055A;" d="M376.296,355.441c0,0-4.733,0-7.982,0c0,0,7.101,9.635,9.934,17.023
				C377.703,366.254,377.059,360.463,376.296,355.441z"/>
			<path style="fill:#5A372D;" d="M373.555,457.344h35.135c0,0,0-7.175,0-9.567c0-2.322-0.072-5.809-0.201-10.201
				c-6.503,0.837-11.681,0.521-15.443-0.102c0.507,3.717,0.943,7.167,1.294,10.303C380.899,450.266,373.555,454.022,373.555,457.344
				z"/>
			<g>
				<path style="fill:#C88C6E;" d="M358.155,286.61h-78.449c-0.528,0-0.957-0.428-0.957-0.957v-32.528
					c0-0.528,0.428-0.957,0.957-0.957h78.449c0.528,0,0.957,0.428,0.957,0.957v32.528
					C359.112,286.182,358.684,286.61,358.155,286.61z"/>
				<g style="opacity:0.5;">
					
						<line style="fill:none;stroke:#C88C6E;stroke-width:0.5063;stroke-linecap:round;stroke-linejoin:round;stroke-miterlimit:10;" x1="358.155" y1="253.126" x2="279.706" y2="285.653"/>
					
						<line style="fill:none;stroke:#C88C6E;stroke-width:0.5063;stroke-linecap:round;stroke-linejoin:round;stroke-miterlimit:10;" x1="279.706" y1="253.126" x2="358.155" y2="285.653"/>
				</g>
				<path style="opacity:0.5;fill:#C88C6E;" d="M359.112,285.653v-32.527c0-0.528-0.428-0.957-0.957-0.957h-21.73
					c-2.205,4.871-4.4,9.793-6.669,14.382c0,0-10.004,3.578-12.542,6.63c-2.539,3.052-11.128,10.518-9.67,13.429h50.611
					C358.684,286.61,359.112,286.182,359.112,285.653z"/>
			</g>
			<g>
				<path style="fill:#DCAF8C;" d="M353.372,252.169h-65.055c-0.528,0-0.957-0.428-0.957-0.957v-36.354
					c0-0.528,0.428-0.957,0.957-0.957h65.055c0.528,0,0.957,0.428,0.957,0.957v36.354
					C354.328,251.741,353.9,252.169,353.372,252.169z"/>
				<g style="opacity:0.5;">
					
						<line style="fill:none;stroke:#DCAF8C;stroke-width:0.5063;stroke-linecap:round;stroke-linejoin:round;stroke-miterlimit:10;" x1="288.317" y1="251.212" x2="353.372" y2="214.858"/>
					
						<line style="fill:none;stroke:#DCAF8C;stroke-width:0.5063;stroke-linecap:round;stroke-linejoin:round;stroke-miterlimit:10;" x1="353.372" y1="251.212" x2="288.317" y2="214.858"/>
				</g>
				<path style="opacity:0.5;fill:#DCAF8C;" d="M354.328,222.355c-0.675,0.744-1.294,1.405-1.821,1.934
					c-6.047,6.068-11.088,16.845-16.082,27.88h16.947c0.528,0,0.956-0.428,0.956-0.957V222.355z"/>
			</g>
			<g>
				<path style="fill:#FFE6CD;" d="M354.877,124.361c0,0-2.641-7.373-9.745-5.525c-4.682,1.218-5.658,7.357-3.833,11.239
					c3.366,7.157,11.015,7.991,13.578,4.569V124.361z"/>
				<g>
					<path style="fill:#F0C8A0;" d="M343.677,123.029c0.634-0.958,1.762-1.593,2.944-1.681c1.187-0.106,2.365,0.311,3.309,0.966
						c0.931,0.685,1.685,1.571,2.212,2.556c0.543,0.978,0.896,2.035,1.111,3.105c0.026,0.127-0.057,0.251-0.184,0.277
						c-0.061,0.012-0.121,0-0.17-0.031l-0.009-0.006c-0.854-0.532-1.783-0.998-2.716-1.24c-0.935-0.228-1.882-0.186-2.474,0.437
						c-0.606,0.628-0.927,1.505-0.632,2.349c0.252,0.849,0.946,1.597,1.806,2.064l0.006,0.003c0.111,0.061,0.153,0.2,0.092,0.312
						c-0.051,0.094-0.159,0.138-0.259,0.113c-1.08-0.274-2.056-1.065-2.521-2.185c-0.454-1.143-0.086-2.574,0.827-3.373
						c0.451-0.428,1.066-0.701,1.673-0.76c0.609-0.07,1.192,0.047,1.72,0.228c1.064,0.367,1.968,0.965,2.765,1.698l-0.364,0.24
						c-0.395-0.983-0.819-1.946-1.383-2.808c-0.555-0.863-1.222-1.65-2.043-2.206c-0.799-0.578-1.755-0.924-2.722-0.9
						c-0.966,0.003-1.919,0.413-2.634,1.13c-0.089,0.091-0.234,0.092-0.325,0.004C343.629,123.242,343.619,123.118,343.677,123.029z
						"/>
				</g>
				<path style="opacity:0.5;fill:#FFE6CD;" d="M345.133,118.836c-1.953,0.508-3.253,1.878-3.982,3.577
					c3.309-0.822,8.569,0.348,11.543,13.783c0.889-0.325,1.65-0.84,2.183-1.552v-10.282
					C354.877,124.361,352.236,116.988,345.133,118.836z"/>
			</g>
			<g>
				<path style="fill:#FFE6CD;" d="M430.691,124.361c0,0,2.641-7.373,9.745-5.525c4.682,1.218,5.658,7.357,3.833,11.239
					c-3.366,7.157-11.015,7.991-13.578,4.569V124.361z"/>
				<g>
					<path style="fill:#F0C8A0;" d="M441.535,123.316c-0.715-0.717-1.668-1.126-2.634-1.13c-0.966-0.024-1.923,0.322-2.722,0.9
						c-0.821,0.556-1.488,1.343-2.043,2.206c-0.564,0.862-0.988,1.825-1.383,2.808l-0.364-0.24c0.797-0.733,1.701-1.331,2.765-1.698
						c0.529-0.181,1.112-0.298,1.72-0.228c0.607,0.059,1.222,0.332,1.674,0.76c0.913,0.799,1.281,2.23,0.827,3.373
						c-0.465,1.12-1.44,1.911-2.521,2.185c-0.123,0.031-0.248-0.043-0.279-0.166c-0.026-0.104,0.023-0.209,0.113-0.258l0.006-0.003
						c0.86-0.467,1.554-1.215,1.806-2.064c0.295-0.843-0.026-1.721-0.632-2.349c-0.591-0.623-1.539-0.665-2.474-0.437
						c-0.933,0.242-1.862,0.709-2.716,1.24l-0.009,0.005c-0.11,0.069-0.255,0.035-0.324-0.075c-0.033-0.053-0.042-0.114-0.031-0.171
						c0.215-1.07,0.568-2.126,1.111-3.105c0.527-0.985,1.281-1.871,2.212-2.556c0.944-0.655,2.122-1.072,3.309-0.966
						c1.182,0.088,2.31,0.723,2.944,1.681c0.07,0.106,0.041,0.248-0.065,0.318C441.733,123.408,441.611,123.391,441.535,123.316z"/>
				</g>
				<path style="opacity:0.5;fill:#FFE6CD;" d="M440.435,118.836c1.953,0.508,3.253,1.878,3.982,3.577
					c-3.309-0.822-8.569,0.348-11.543,13.783c-0.889-0.325-1.65-0.84-2.183-1.552v-10.282
					C430.691,124.361,433.332,116.988,440.435,118.836z"/>
			</g>
			<path style="fill:#FFE6CD;" d="M401.394,175.938l-0.957-15.307H385.13l-0.957,15.307c-0.696,0.653-1.424,1.323-2.121,1.96
				C385.908,177.978,395.042,177.925,401.394,175.938z"/>
			<path style="opacity:0.5;fill:#FFE6CD;" d="M384.179,177.918c4.474-0.002,11.836-0.297,17.215-1.98l-0.314-5.032
				c-2,0.611-12.988,3.956-15.632,4.414C385.448,175.319,384.949,176.491,384.179,177.918z"/>
			<path style="opacity:0.5;fill:#FFE6CD;" d="M400.438,160.631H385.13l-0.5,7.995c4.588,1.218,10.131,1.858,16.369,1.002
				L400.438,160.631z"/>
			<path style="fill:#14055A;" d="M367.013,248.23c0.146,12.42,1.509,24.296,4.2,34.349c4.497,52.693,16.738,127.178,21.833,164.578
				c3.762,0.623,10.162,0.94,16.665,0.102c-1.173-39.934-8.316-164.677-8.316-164.68c4.316-4.108,9.113-7.163,10.675-20.045
				c0.602-4.964-0.44-11.232-1.557-16.042C391.893,249.226,374.93,248.717,367.013,248.23z"/>
			<path style="opacity:0.5;fill:#14055A;" d="M367.013,248.23c0.115,9.779,0.988,19.216,2.666,27.695
				c1.669-0.001,3.396,0,4.347,0.009c0,0,0.34,3.882,1.122,10.676c0,0,15.833-1.554,30.858-8.496
				c2.702-3.052,5.057-7.27,6.064-15.58c0.602-4.964-0.44-11.232-1.557-16.042C391.893,249.226,374.93,248.717,367.013,248.23z"/>
			<path style="fill:#FAFAFA;" d="M415.906,264.96c-2.015-17.805-5.599-25.897-5.599-25.897s-2.677-16.064-0.783-35.672
				c1.343-13.907-3.696-21.3-8.129-27.453c-6.353,1.988-15.731,1.981-19.586,1.901c-0.078,0.074-0.156,0.148-0.234,0.222
				c-2.248,2.141-3.946,4.789-4.935,7.731c-6.7,19.93-11.347,55.39-11.347,86.782C365.291,272.575,395.189,274.143,415.906,264.96z"
				/>
			<path style="opacity:0.5;fill:#E6E6E6;" d="M410.307,239.063c0,0-2.678-16.065-0.783-35.672
				c1.343-13.907-3.696-21.3-8.129-27.453c-5.278,1.651-12.633,1.925-17.186,1.925c-0.526,0.98-1.182,2.087-1.896,3.022
				c0,0-0.93,2.79-2.198,7.963c-1.952,1.39-3.956,2.839-5.597,4.032c-4.256,15.803-7.416,37.863-8.652,59.921
				c2.097-2.518,4.722-6.05,7.336-9.71c-0.255,9.095-0.099,19.001,0.646,29.549c10.399-0.218,28.263-1.565,42.06-7.68
				C413.891,247.155,410.307,239.063,410.307,239.063z"/>
			<path style="fill:#F07828;" d="M386.344,175.938c0,0-0.747,1.975-2.613,4.962c0,0-13.148,46.118-6.898,100.634
				c0,0,28.659-1.323,47.584-16.573c0,0-7.764-23.202-10.004-35.079c-2.24-11.878,3.732-40.396-12.728-56.265
				C401.685,173.615,393.66,175.412,386.344,175.938z"/>
			<path style="opacity:0.5;fill:#F07828;" d="M388.359,228.709c2.016-3.029,6.745-14.365,6.745-14.365
				c1.444-1.866,5.142-10.01,5.142-10.01l-15.161-18.953c-0.867,0.584-1.886,1.289-2.971,2.051
				c-2.156,9.508-5.811,28.667-6.744,52.59c4.882-6.97,9.181-13.508,9.181-13.508C385.97,227.633,388.359,228.709,388.359,228.709z"
				/>
			<path style="fill:#FFE6CD;" d="M356.847,223.415c-10.369,11.011-15.415,25.356-26.497,46.622c0,0-7.437,0.672-12.171,6.121
				c-4.948,5.695-7.953,6.982-7.583,8.66c0.485,2.202,5.188,1.792,5.188,1.792s-1.058,3.158,0.143,4.826
				c1.201,1.669,4.71,1.743,4.71,1.743s8.615,2.054,13.687-0.896c5.648-3.285,8.336-8.311,11.173-18.887
				c0,0,24.021-29.709,30.07-37.635c3.365-4.408,7.887-10.044,11.755-14.774c-8.545-4.378-15.021-9.66-19.048-13.442
				C362.438,215.638,356.847,223.415,356.847,223.415z"/>
			<g>
				<path style="fill:#F0C8A0;" d="M315.784,286.61c0.652-0.286,1.277-0.585,1.859-0.953c0.578-0.372,1.127-0.783,1.633-1.249
					c0.515-0.456,0.99-0.962,1.485-1.46c0.493-0.497,0.989-1.02,1.585-1.414c-0.451,0.548-0.855,1.114-1.292,1.671
					c-0.429,0.561-0.909,1.094-1.439,1.579C318.554,285.75,317.198,286.444,315.784,286.61z"/>
			</g>
			<path style="fill:#F07828;" d="M400.438,182.572c-6.314-4.018-13.986-1.299-24.322,12.96c-2.432,3.355-7.437,9.153-10.526,13.438
				c4.377,5.595,12.358,12.121,20.903,16.499c3.086-3.775,6.584-11.455,7.913-12.99
				C404.121,201.254,408.367,187.618,400.438,182.572z"/>
			<path style="fill:#FFE6CD;" d="M392.784,70.702c-25.864,0-39.465,16.641-40.502,40.782c-1.43,33.31,6.211,54.888,40.502,54.888
				s41.931-21.578,40.502-54.888C432.25,87.343,418.648,70.702,392.784,70.702z"/>
			<g>
				<path style="fill:#961432;" d="M392.784,156.898c13.489,0,11.345-11.101,11.345-11.101s-5.56,1.444-11.345,1.444
					s-11.344-1.444-11.344-1.444S379.737,156.898,392.784,156.898z"/>
				<g>
					<path style="fill:#F0C8A0;" d="M393.066,122.712c0.076,1.64,0.3,3.288,0.577,4.903c0.299,1.613,0.714,3.204,1.337,4.682
						c0.179,0.355,0.331,0.729,0.544,1.059l0.307,0.503c0.128,0.193,0.248,0.398,0.351,0.61c0.41,0.852,0.492,1.844,0.282,2.755
						c-0.186,0.928-0.795,1.732-1.4,2.313c-0.611,0.621-1.343,1.144-2.153,1.478c-0.145,0.06-0.31-0.009-0.37-0.154
						c-0.054-0.131,0-0.281,0.118-0.352c0.682-0.41,1.268-0.949,1.79-1.545c0.538-0.616,0.923-1.227,1.07-1.95
						c0.154-0.713,0.048-1.464-0.248-2.122c-0.078-0.164-0.166-0.319-0.266-0.475l-0.338-0.566
						c-0.232-0.375-0.392-0.778-0.581-1.168c-0.663-1.596-1.05-3.261-1.282-4.933c-0.244-1.673-0.33-3.35-0.302-5.039
						c0.003-0.156,0.131-0.28,0.287-0.278c0.15,0.003,0.27,0.121,0.277,0.268L393.066,122.712z"/>
				</g>
				<ellipse style="fill:#784B41;" cx="411.584" cy="123.798" rx="4.783" ry="5.262"/>
				<g>
					<path style="fill:#784B41;" d="M405.982,122.555c0.433-1.406,1.374-2.688,2.627-3.594c1.246-0.922,2.823-1.426,4.401-1.436
						c1.577,0.005,3.157,0.501,4.407,1.419c1.257,0.9,2.202,2.181,2.639,3.586c0.055,0.177-0.044,0.366-0.221,0.422
						c-0.132,0.041-0.271-0.003-0.356-0.102l-0.004-0.004c-0.885-1.033-1.875-1.868-2.974-2.439
						c-1.099-0.561-2.288-0.87-3.488-0.855c-1.2-0.013-2.388,0.302-3.485,0.868c-1.097,0.576-2.084,1.414-2.965,2.451l-0.003,0.004
						c-0.12,0.142-0.333,0.159-0.474,0.039C405.98,122.821,405.944,122.68,405.982,122.555z"/>
				</g>
				<g>
					<path style="fill:#784B41;" d="M380.609,113.563c-1.486-0.577-2.788-0.844-4.118-1.038c-1.319-0.187-2.624-0.261-3.939-0.268
						c-1.315,0.007-2.62,0.077-3.94,0.262c-1.33,0.191-2.633,0.455-4.123,1.025l-0.023,0.009c-0.183,0.07-0.388-0.022-0.457-0.204
						c-0.031-0.08-0.03-0.164-0.005-0.24c0.566-1.682,2.003-2.942,3.535-3.733c1.557-0.794,3.297-1.166,5.017-1.169
						c1.72,0.007,3.459,0.383,5.015,1.181c1.53,0.794,2.964,2.058,3.526,3.741c0.062,0.185-0.038,0.386-0.224,0.448
						c-0.081,0.027-0.166,0.023-0.24-0.006L380.609,113.563z"/>
				</g>
				<path style="fill:#784B41;" d="M366.331,123.798c0,2.906,2.142,5.262,4.783,5.262c2.642,0,4.783-2.356,4.783-5.262
					c0-2.906-2.142-5.262-4.783-5.262C368.472,118.536,366.331,120.892,366.331,123.798z"/>
				<g>
					<path style="fill:#784B41;" d="M379.005,122.868c-0.881-1.037-1.868-1.875-2.965-2.451c-1.098-0.565-2.285-0.88-3.485-0.868
						c-1.2-0.015-2.389,0.294-3.488,0.855c-1.099,0.571-2.089,1.406-2.974,2.439l-0.004,0.004c-0.121,0.141-0.333,0.158-0.475,0.037
						c-0.105-0.09-0.141-0.231-0.102-0.356c0.437-1.405,1.382-2.685,2.639-3.586c1.25-0.917,2.829-1.414,4.407-1.419
						c1.578,0.01,3.155,0.515,4.401,1.436c1.253,0.906,2.194,2.188,2.627,3.594c0.055,0.178-0.045,0.366-0.223,0.421
						c-0.133,0.041-0.271-0.004-0.356-0.104L379.005,122.868z"/>
				</g>
				<path style="fill:#F56E82;" d="M392.836,151.348c-4.337,0-7.052,1.15-8.747,2.707c1.683,1.626,4.379,2.844,8.695,2.844
					c4.337,0,7.052-1.15,8.747-2.707C399.848,152.565,397.153,151.348,392.836,151.348z"/>
				<g>
					<path style="fill:#784B41;" d="M421.079,113.563c-1.486-0.577-2.788-0.844-4.118-1.038c-1.319-0.187-2.624-0.261-3.939-0.268
						c-1.315,0.007-2.62,0.077-3.94,0.262c-1.33,0.191-2.633,0.455-4.123,1.025l-0.023,0.009c-0.183,0.07-0.388-0.022-0.457-0.204
						c-0.031-0.08-0.03-0.164-0.005-0.24c0.566-1.682,2.003-2.942,3.535-3.733c1.557-0.794,3.297-1.166,5.017-1.169
						c1.72,0.007,3.459,0.383,5.015,1.181c1.53,0.794,2.965,2.058,3.526,3.741c0.062,0.185-0.038,0.386-0.224,0.448
						c-0.081,0.027-0.166,0.023-0.24-0.006L421.079,113.563z"/>
				</g>
			</g>
			<path style="fill:#A06E5A;" d="M435.879,88.851c0,0,5.396,8.063,5.833,19.111s-8.486,18.182-8.486,18.182
				s-1.096-1.123-2.41-2.767c-1.543-1.931-1.97-4.579-0.978-6.843c0.659-1.504,1.091-3.618,0.441-6.301
				c-1.418-5.854-6.107-10.627-6.107-15.554c0,0-5.818-2.275-11.96-0.752c-9.631,2.389-11.91,4.479-19.43,4.479
				s-9.8-2.09-19.43-4.479c-6.142-1.524-11.96,0.752-11.96,0.752c0,4.927-4.688,9.7-6.107,15.554
				c-0.65,2.683-0.218,4.798,0.441,6.301c0.992,2.264,0.565,4.912-0.978,6.843c-1.314,1.644-2.41,2.767-2.41,2.767
				s-8.923-7.133-8.485-18.182c0.437-11.049,5.833-19.111,5.833-19.111s-4.629-8.809,6.794-17.842
				c11.422-9.033,42.851-10.302,44.345-8.958s-0.97,5.226-0.97,5.226s5.45-0.971,8.511-2.912c3.061-1.941,4.778-4.479,6.569-4.479
				s4.703,4.255,3.583,9.63c0,0,2.464-5.748,3.807-5.748c1.344,0,4.031,5.3,2.762,10.75c0,0,3.887-3.658,5.602-2.538
				c1.714,1.12,2.909,6.719,2.162,11.198c0,0,4.703-0.896,5.268,1.08C438.694,86.26,435.879,88.851,435.879,88.851z"/>
			<path style="opacity:0.5;fill:#A06E5A;" d="M361.394,94.679c-0.538,2.954-5.089,9.121-8.665,11.496
				c-4.715,3.131-5.072,6.49-5.072,6.49c-2.517-1.568-3.802-4.703-3.802-4.703c-0.437,11.049,8.485,18.182,8.485,18.182
				s1.096-1.123,2.41-2.767c1.543-1.931,1.97-4.579,0.978-6.843c-0.659-1.504-1.091-3.618-0.441-6.301
				C356.706,104.379,361.394,99.606,361.394,94.679z"/>
			<path style="opacity:0.5;fill:#A06E5A;" d="M437.911,112.665c0,0-0.357-3.359-5.072-6.49c-3.576-2.375-8.127-8.542-8.665-11.496
				c0,4.927,4.688,9.7,6.107,15.554c0.65,2.683,0.218,4.798-0.44,6.301c-0.992,2.264-0.565,4.912,0.978,6.843
				c1.314,1.644,2.41,2.767,2.41,2.767s8.923-7.133,8.485-18.182C441.713,107.962,440.427,111.098,437.911,112.665z"/>
			<g style="opacity:0.5;">
				
					<path style="fill:none;stroke:#A06E5A;stroke-width:0.5063;stroke-linecap:round;stroke-linejoin:round;stroke-miterlimit:10;" d="
					M354.877,87.731c0,0-3.696-6.719,3.172-13.214c7.804-7.38,22.66-9.705,34.734-10.004"/>
				
					<path style="fill:none;stroke:#A06E5A;stroke-width:0.5063;stroke-linecap:round;stroke-linejoin:round;stroke-miterlimit:10;" d="
					M355.959,87.731c0,0-0.161-10.078,10.371-16.349"/>
				
					<path style="fill:none;stroke:#A06E5A;stroke-width:0.5063;stroke-linecap:round;stroke-linejoin:round;stroke-miterlimit:10;" d="
					M399.408,70.337c0,0,11.049-0.896,15.379-7.465"/>
				
					<path style="fill:none;stroke:#A06E5A;stroke-width:0.5063;stroke-linecap:round;stroke-linejoin:round;stroke-miterlimit:10;" d="
					M434.048,90.419c0,0,6.555,9.839,3.863,23.292"/>
				
					<path style="fill:none;stroke:#A06E5A;stroke-width:0.5063;stroke-linecap:round;stroke-linejoin:round;stroke-miterlimit:10;" d="
					M435.466,99.676c0,0,1.811,12.132-1.418,17.917"/>
				
					<path style="fill:none;stroke:#A06E5A;stroke-width:0.5063;stroke-linecap:round;stroke-linejoin:round;stroke-miterlimit:10;" d="
					M350.502,116.995c0,0-5.317-7.316-2.057-18.664"/>
			</g>
			<path style="opacity:0.5;fill:#F07828;" d="M385.275,185.22c0,0,10.564-3.029,18.252-9.653c-0.584-0.667-1.189-1.323-1.842-1.952
				c0,0-8.025,1.797-15.341,2.323c0,0,0.597,0.613,0.877,0.949C387.221,176.887,385.696,181.901,385.275,185.22z"/>
			<path style="fill:#F07828;" d="M386.344,175.938c0,0,0.489,0.38,1.368,0.768c0,0-1.144,3.429-1.816,7.74
				c0,0,14.721-5.768,18.416-9.576l-2.918-4.061C401.394,170.809,392.784,173.919,386.344,175.938z"/>
			<g>
				<g>
					
						<path style="fill:none;stroke:#FAFAFA;stroke-width:0.6903;stroke-linecap:round;stroke-linejoin:round;stroke-miterlimit:10;" d="
						M319.25,136.24c0,0,10.229-12.388,15.753-14.373c3.637-1.307-7.877,14.373-7.877,14.373"/>
					
						<path style="fill:none;stroke:#FAFAFA;stroke-width:0.6903;stroke-linecap:round;stroke-linejoin:round;stroke-miterlimit:10;" d="
						M343.486,136.24c0,0-12.941-11.563-12.118-18.008c0.294-2.3,10.575,9.691,10.575,17.963"/>
					<polygon style="fill:#FAE63C;" points="350.502,194.767 331.368,193.267 312.234,194.767 318.612,134.74 344.124,134.74 					
						"/>
					<polygon style="opacity:0.5;fill:#FAE63C;" points="350.502,194.767 331.368,193.267 331.368,134.74 344.124,134.74 					"/>
					<polygon style="opacity:0.5;fill:#FAE63C;" points="312.234,194.767 331.368,185.763 350.502,194.767 331.368,193.267 					"/>
				</g>
				<g>
					
						<path style="fill:none;stroke:#FAFAFA;stroke-width:0.5775;stroke-linecap:round;stroke-linejoin:round;stroke-miterlimit:10;" d="
						M306.621,143.556c0,0-15.294-6.543-15.294-13.086c0-2.632,8.813,3.327,13.253,13.086"/>
					
						<path style="fill:none;stroke:#FAFAFA;stroke-width:0.5775;stroke-linecap:round;stroke-linejoin:round;stroke-miterlimit:10;" d="
						M287.232,143.556c0,0,15.294-6.543,15.294-13.086c0-2.632-8.813,3.327-13.253,13.086"/>
					<polygon style="fill:#3232B4;" points="312.234,194.767 296.927,193.454 281.62,194.767 286.722,142.243 307.132,142.243 					
						"/>
					<polygon style="opacity:0.5;fill:#3232B4;" points="312.234,194.767 296.927,193.454 296.927,142.243 307.132,142.243 					"/>
					<polygon style="opacity:0.5;fill:#3232B4;" points="281.62,194.767 296.927,186.889 312.234,194.767 296.927,193.454 					"/>
				</g>
			</g>
			<g>
				<path style="fill:#C88C6E;" d="M353.372,213.901H278.75c-0.528,0-0.957-0.428-0.957-0.957v-17.221
					c0-0.528,0.428-0.957,0.957-0.957h74.622c0.528,0,0.957,0.428,0.957,0.957v17.221
					C354.328,213.473,353.9,213.901,353.372,213.901z"/>
				<g style="opacity:0.5;">
					
						<line style="fill:none;stroke:#C88C6E;stroke-width:0.5063;stroke-linecap:round;stroke-linejoin:round;stroke-miterlimit:10;" x1="278.75" y1="195.724" x2="353.372" y2="212.945"/>
					
						<line style="fill:none;stroke:#C88C6E;stroke-width:0.5063;stroke-linecap:round;stroke-linejoin:round;stroke-miterlimit:10;" x1="353.372" y1="195.724" x2="278.75" y2="212.945"/>
				</g>
			</g>
		</g>
	</g>
</g>
</svg>
